<?xml version="1.0" standalone="no"?>
<!DOCTYPE svg PUBLIC "-//W3C//DTD SVG 20010904//EN"
 "http://www.w3.org/TR/2001/REC-SVG-20010904/DTD/svg10.dtd">
<svg version="1.0" xmlns="http://www.w3.org/2000/svg"
 width="1280.000000pt" height="1280.000000pt" viewBox="0 0 1280.000000 1280.000000"
 preserveAspectRatio="xMidYMid meet">
<metadata>
Created by potrace 1.14, written by Peter Selinger 2001-2017
</metadata>
<g transform="translate(0.000000,1280.000000) scale(0.100000,-0.100000)"
fill="#000000" stroke="none">
<path d="M6155 11318 c-136 -15 -319 -56 -467 -105 -150 -49 -495 -212 -505
-239 -3 -8 -1 -31 5 -52 114 -425 204 -869 226 -1117 3 -33 10 -107 16 -165 5
-58 10 -132 12 -164 l2 -59 -50 -14 c-27 -8 -92 -27 -144 -44 l-96 -31 -64 27
c-94 38 -131 50 -265 84 -199 51 -300 40 -373 -43 -112 -128 -180 -432 -202
-904 -9 -193 -16 -240 -40 -262 -10 -9 -61 -129 -90 -212 -61 -178 -85 -356
-77 -583 7 -197 35 -352 93 -511 19 -54 36 -107 37 -116 1 -9 3 -15 5 -13 3 2
25 -35 49 -82 52 -102 125 -213 198 -303 52 -64 199 -210 263 -262 17 -15 32
-36 32 -47 0 -11 5 -32 10 -46 9 -24 2 -41 -76 -163 -241 -384 -437 -891 -542
-1407 -59 -287 -67 -362 -67 -605 0 -226 8 -303 51 -485 81 -353 284 -646 529
-765 114 -55 185 -70 349 -70 131 0 142 -2 195 -28 55 -26 59 -27 236 -27 260
1 445 40 560 120 28 19 56 35 61 35 5 0 14 8 19 18 6 10 25 40 43 67 56 84 74
148 73 255 0 52 -1 104 -3 115 -2 15 13 28 76 60 74 38 84 40 166 40 82 0 92
-2 166 -40 74 -38 79 -42 77 -70 -8 -105 -3 -214 10 -252 21 -56 76 -139 121
-184 55 -55 166 -106 291 -135 90 -21 143 -26 295 -30 191 -5 247 3 305 43 14
9 58 13 156 13 153 0 213 9 300 44 98 40 168 87 255 172 178 174 298 426 356
748 18 100 22 159 22 346 1 136 -4 251 -11 290 -7 36 -15 88 -18 115 -4 28
-17 100 -30 160 -13 61 -27 126 -30 145 -31 161 -143 512 -240 750 -34 83
-165 350 -204 415 -17 28 -38 64 -47 80 -9 17 -39 63 -67 104 l-49 75 13 55
c12 53 19 62 135 174 67 64 145 145 172 180 185 232 304 488 355 762 29 160
31 449 3 600 -23 130 -86 316 -137 411 l-41 75 -8 207 c-16 384 -75 701 -157
842 -79 134 -171 162 -382 114 -69 -16 -227 -77 -321 -124 l-58 -29 -104 38
c-56 22 -149 52 -205 68 -78 21 -102 32 -99 43 3 8 7 44 11 80 42 432 156 934
307 1349 l41 114 -29 24 c-58 47 -340 180 -479 225 -302 99 -640 138 -920 106z"/>
</g>
</svg>
