<svg width="137" height="68" viewBox="0 0 137 68" fill="none" xmlns="http://www.w3.org/2000/svg">
<path fill-rule="evenodd" clip-rule="evenodd" d="M134.376 39.9261C136.984 37.3179 136.976 33.2527 134.358 30.6343L103.724 1.24085e-05L96.7685 1.18005e-05L109.06 12.2918C107.608 11.9986 105.866 11.9951 104.124 11.9917C73.9288 13.6748 35.1107 60.0573 33.6628 62.087C33.0832 62.6666 31.9218 62.6643 31.3399 62.0824L5.4467 36.1892C4.86483 35.6074 4.86254 34.4459 5.44213 33.8663L30.6546 8.65387C31.524 7.78448 31.5206 6.04227 30.6478 5.16946C29.775 4.29666 28.0328 4.29326 27.1634 5.16265L1.9509 30.3751C-0.657269 32.9833 -0.64932 37.0484 1.96909 39.6668L27.8623 65.5601C29.6079 67.3057 33.9663 68.766 37.4439 65.2884C37.4551 65.2772 37.5237 65.1963 37.6469 65.0511C40.7037 61.4497 77.3521 18.2711 104.424 16.9286C110.521 16.6502 115.461 18.6924 119.534 22.7655L130.88 34.1119C131.462 34.6938 131.465 35.8552 130.885 36.4348L105.093 62.2268C104.513 62.8064 103.352 62.8042 102.77 62.2223L78.3315 37.7838C77.4587 36.911 75.7165 36.9075 74.8471 37.7769C73.9777 38.6463 73.9811 40.3885 74.8539 41.2613L99.2925 65.6999C101.911 68.3183 105.976 68.3262 108.584 65.718L134.376 39.9261ZM33.3396 6.25533e-06L40.5477 6.88548e-06L61.4572 20.9096C62.3301 21.7824 62.3335 23.5245 61.4641 24.3939C60.5947 25.2633 58.8525 25.2599 57.9797 24.3871L33.3396 6.25533e-06Z" fill="#FF9300"/>
</svg>
