<svg width="137" height="68" viewBox="0 0 137 68" fill="none" xmlns="http://www.w3.org/2000/svg">
<path fill-rule="evenodd" clip-rule="evenodd" d="M1.9509 28.0739C-0.657284 30.6821 -0.64934 34.7473 1.96907 37.3657L32.6034 68H39.5586L27.2668 55.7082C28.7192 56.0014 30.4614 56.0048 32.2036 56.0083C62.3983 54.3252 101.216 7.9427 102.664 5.91298C103.244 5.33339 104.405 5.33568 104.987 5.91755L130.88 31.8108C131.462 32.3926 131.465 33.5541 130.885 34.1337L105.673 59.3461C104.803 60.2155 104.807 61.9577 105.679 62.8305C106.552 63.7033 108.294 63.7067 109.164 62.8373L134.376 37.6249C136.984 35.0167 136.976 30.9516 134.358 28.3331L108.465 2.43994C106.719 0.694327 102.361 -0.765998 98.8832 2.71158C98.872 2.7228 98.8034 2.80367 98.6802 2.94884C95.6234 6.55031 58.9751 49.7288 31.9036 51.0714C25.8065 51.3498 20.8662 49.3076 16.7931 45.2345L5.44668 33.8881C4.86481 33.3062 4.86252 32.1448 5.44211 31.5652L31.2341 5.77317C31.8137 5.19357 32.9752 5.19578 33.5571 5.77765L57.9956 30.2162C58.8684 31.089 60.6106 31.0925 61.48 30.2231C62.3494 29.3537 62.346 27.6115 61.4732 26.7387L37.0346 2.30013C34.4162 -0.318286 30.3511 -0.326228 27.7429 2.28195L1.9509 28.0739ZM102.988 68H95.7794L74.8699 47.0904C73.9971 46.2176 73.9936 44.4755 74.863 43.6061C75.7324 42.7367 77.4746 42.7401 78.3474 43.6129L102.988 68Z" fill="white"/>
</svg>
